<?xml version="1.0" encoding="UTF-8" standalone="no"?>
<!-- This is a Stata 15.0 generated SVG file (http://www.stata.com) -->

<svg version="1.1" width="5.50in" height="4.00in" viewBox="0 0 3960 2880" xmlns="http://www.w3.org/2000/svg" xmlns:xlink="http://www.w3.org/1999/xlink">
	<desc>Stata Graph - Graph</desc>
	<rect x="0" y="0" width="3960" height="2880" style="fill:#EAF2F3;stroke:none"/>
	<rect x="0.00" y="0.00" width="3959.88" height="2880.00" style="fill:#EAF2F3"/>
	<rect x="2.88" y="2.88" width="3954.12" height="2874.24" style="fill:none;stroke:#EAF2F3;stroke-width:5.76"/>
	<rect x="390.80" y="100.86" width="3468.22" height="1852.84" style="fill:#FFFFFF"/>
	<rect x="393.68" y="103.74" width="3462.46" height="1847.08" style="fill:none;stroke:#FFFFFF;stroke-width:5.76"/>
	<line x1="390.80" y1="1953.70" x2="3859.02" y2="1953.70" style="stroke:#EAF2F3;stroke-width:8.64"/>
	<line x1="390.80" y1="1372.80" x2="3859.02" y2="1372.80" style="stroke:#EAF2F3;stroke-width:8.64"/>
	<line x1="390.80" y1="791.90" x2="3859.02" y2="791.90" style="stroke:#EAF2F3;stroke-width:8.64"/>
	<line x1="390.80" y1="211.00" x2="3859.02" y2="211.00" style="stroke:#EAF2F3;stroke-width:8.64"/>
	<rect x="1434.02" y="1058.96" width="433.87" height="894.74" style="fill:#FF7F00;fill-opacity:0.40"/>
	<rect x="1438.33" y="1063.28" width="425.23" height="886.10" style="fill:none;stroke:#D7D29E;stroke-width:8.64"/>
	<rect x="1867.88" y="164.22" width="433.99" height="1789.48" style="fill:#FF7F00;fill-opacity:0.40"/>
	<rect x="1872.20" y="168.54" width="425.35" height="1780.84" style="fill:none;stroke:#D7D29E;stroke-width:8.64"/>
	<rect x="2301.87" y="1208.09" width="433.87" height="745.62" style="fill:#FF7F00;fill-opacity:0.40"/>
	<rect x="2306.19" y="1212.41" width="425.23" height="736.98" style="fill:none;stroke:#D7D29E;stroke-width:8.64"/>
	<rect x="2735.74" y="1506.33" width="433.87" height="447.37" style="fill:#FF7F00;fill-opacity:0.40"/>
	<rect x="2740.06" y="1510.65" width="425.23" height="438.73" style="fill:none;stroke:#D7D29E;stroke-width:8.64"/>
	<rect x="3169.61" y="1357.21" width="433.87" height="596.49" style="fill:#FF7F00;fill-opacity:0.40"/>
	<rect x="3173.93" y="1361.53" width="425.23" height="587.85" style="fill:none;stroke:#D7D29E;stroke-width:8.64"/>
	<line x1="1434.02" y1="1593.08" x2="1441.19" y2="1585.78" stroke-linecap="round" style="stroke:#2D6D66;stroke-width:8.64"/>
	<line x1="1441.19" y1="1585.78" x2="1448.49" y2="1578.36" stroke-linecap="round" style="stroke:#2D6D66;stroke-width:8.64"/>
	<line x1="1448.49" y1="1578.36" x2="1455.80" y2="1570.93" stroke-linecap="round" style="stroke:#2D6D66;stroke-width:8.64"/>
	<line x1="1455.80" y1="1570.93" x2="1462.97" y2="1563.38" stroke-linecap="round" style="stroke:#2D6D66;stroke-width:8.64"/>
	<line x1="1462.97" y1="1563.38" x2="1470.27" y2="1555.83" stroke-linecap="round" style="stroke:#2D6D66;stroke-width:8.64"/>
	<line x1="1470.27" y1="1555.83" x2="1477.58" y2="1548.04" stroke-linecap="round" style="stroke:#2D6D66;stroke-width:8.64"/>
	<line x1="1477.58" y1="1548.04" x2="1484.75" y2="1540.24" stroke-linecap="round" style="stroke:#2D6D66;stroke-width:8.64"/>
	<line x1="1484.75" y1="1540.24" x2="1492.05" y2="1532.32" stroke-linecap="round" style="stroke:#2D6D66;stroke-width:8.64"/>
	<line x1="1492.05" y1="1532.32" x2="1499.23" y2="1524.40" stroke-linecap="round" style="stroke:#2D6D66;stroke-width:8.64"/>
	<line x1="1499.23" y1="1524.40" x2="1506.53" y2="1516.36" stroke-linecap="round" style="stroke:#2D6D66;stroke-width:8.64"/>
	<line x1="1506.53" y1="1516.36" x2="1513.83" y2="1508.19" stroke-linecap="round" style="stroke:#2D6D66;stroke-width:8.64"/>
	<line x1="1513.83" y1="1508.19" x2="1521.01" y2="1500.02" stroke-linecap="round" style="stroke:#2D6D66;stroke-width:8.64"/>
	<line x1="1521.01" y1="1500.02" x2="1528.31" y2="1491.73" stroke-linecap="round" style="stroke:#2D6D66;stroke-width:8.64"/>
	<line x1="1528.31" y1="1491.73" x2="1535.61" y2="1483.31" stroke-linecap="round" style="stroke:#2D6D66;stroke-width:8.64"/>
	<line x1="1535.61" y1="1483.31" x2="1542.79" y2="1474.77" stroke-linecap="round" style="stroke:#2D6D66;stroke-width:8.64"/>
	<line x1="1542.79" y1="1474.77" x2="1550.09" y2="1466.24" stroke-linecap="round" style="stroke:#2D6D66;stroke-width:8.64"/>
	<line x1="1550.09" y1="1466.24" x2="1557.39" y2="1457.70" stroke-linecap="round" style="stroke:#2D6D66;stroke-width:8.64"/>
	<line x1="1557.39" y1="1457.70" x2="1564.57" y2="1449.03" stroke-linecap="round" style="stroke:#2D6D66;stroke-width:8.64"/>
	<line x1="1564.57" y1="1449.03" x2="1571.87" y2="1440.25" stroke-linecap="round" style="stroke:#2D6D66;stroke-width:8.64"/>
	<line x1="1571.87" y1="1440.25" x2="1579.05" y2="1431.46" stroke-linecap="round" style="stroke:#2D6D66;stroke-width:8.64"/>
	<line x1="1579.05" y1="1431.46" x2="1586.35" y2="1422.55" stroke-linecap="round" style="stroke:#2D6D66;stroke-width:8.64"/>
	<line x1="1586.35" y1="1422.55" x2="1593.65" y2="1413.52" stroke-linecap="round" style="stroke:#2D6D66;stroke-width:8.64"/>
	<line x1="1593.65" y1="1413.52" x2="1600.83" y2="1404.48" stroke-linecap="round" style="stroke:#2D6D66;stroke-width:8.64"/>
	<line x1="1600.83" y1="1404.48" x2="1608.13" y2="1395.45" stroke-linecap="round" style="stroke:#2D6D66;stroke-width:8.64"/>
	<line x1="1608.13" y1="1395.45" x2="1615.43" y2="1386.29" stroke-linecap="round" style="stroke:#2D6D66;stroke-width:8.64"/>
	<line x1="1615.43" y1="1386.29" x2="1622.61" y2="1377.01" stroke-linecap="round" style="stroke:#2D6D66;stroke-width:8.64"/>
	<line x1="1622.61" y1="1377.01" x2="1629.91" y2="1367.73" stroke-linecap="round" style="stroke:#2D6D66;stroke-width:8.64"/>
	<line x1="1629.91" y1="1367.73" x2="1637.09" y2="1358.45" stroke-linecap="round" style="stroke:#2D6D66;stroke-width:8.64"/>
	<line x1="1637.09" y1="1358.45" x2="1644.39" y2="1349.04" stroke-linecap="round" style="stroke:#2D6D66;stroke-width:8.64"/>
	<line x1="1644.39" y1="1349.04" x2="1651.69" y2="1339.51" stroke-linecap="round" style="stroke:#2D6D66;stroke-width:8.64"/>
	<line x1="1651.69" y1="1339.51" x2="1658.87" y2="1330.11" stroke-linecap="round" style="stroke:#2D6D66;stroke-width:8.64"/>
	<line x1="1658.87" y1="1330.11" x2="1666.17" y2="1320.58" stroke-linecap="round" style="stroke:#2D6D66;stroke-width:8.64"/>
	<line x1="1666.17" y1="1320.58" x2="1673.47" y2="1310.92" stroke-linecap="round" style="stroke:#2D6D66;stroke-width:8.64"/>
	<line x1="1673.47" y1="1310.92" x2="1680.65" y2="1301.27" stroke-linecap="round" style="stroke:#2D6D66;stroke-width:8.64"/>
	<line x1="1680.65" y1="1301.27" x2="1687.95" y2="1291.62" stroke-linecap="round" style="stroke:#2D6D66;stroke-width:8.64"/>
	<line x1="1687.95" y1="1291.62" x2="1695.25" y2="1281.84" stroke-linecap="round" style="stroke:#2D6D66;stroke-width:8.64"/>
	<line x1="1695.25" y1="1281.84" x2="1702.43" y2="1272.07" stroke-linecap="round" style="stroke:#2D6D66;stroke-width:8.64"/>
	<line x1="1702.43" y1="1272.07" x2="1709.73" y2="1262.29" stroke-linecap="round" style="stroke:#2D6D66;stroke-width:8.64"/>
	<line x1="1709.73" y1="1262.29" x2="1716.91" y2="1252.51" stroke-linecap="round" style="stroke:#2D6D66;stroke-width:8.64"/>
	<line x1="1716.91" y1="1252.51" x2="1724.21" y2="1242.61" stroke-linecap="round" style="stroke:#2D6D66;stroke-width:8.64"/>
	<line x1="1724.21" y1="1242.61" x2="1731.51" y2="1232.71" stroke-linecap="round" style="stroke:#2D6D66;stroke-width:8.64"/>
	<line x1="1731.51" y1="1232.71" x2="1738.69" y2="1222.81" stroke-linecap="round" style="stroke:#2D6D66;stroke-width:8.64"/>
	<line x1="1738.69" y1="1222.81" x2="1745.99" y2="1212.91" stroke-linecap="round" style="stroke:#2D6D66;stroke-width:8.64"/>
	<line x1="1745.99" y1="1212.91" x2="1753.29" y2="1203.01" stroke-linecap="round" style="stroke:#2D6D66;stroke-width:8.64"/>
	<line x1="1753.29" y1="1203.01" x2="1760.47" y2="1192.99" stroke-linecap="round" style="stroke:#2D6D66;stroke-width:8.64"/>
	<line x1="1760.47" y1="1192.99" x2="1767.77" y2="1183.09" stroke-linecap="round" style="stroke:#2D6D66;stroke-width:8.64"/>
	<line x1="1767.77" y1="1183.09" x2="1774.95" y2="1173.06" stroke-linecap="round" style="stroke:#2D6D66;stroke-width:8.64"/>
	<line x1="1774.95" y1="1173.06" x2="1782.25" y2="1163.04" stroke-linecap="round" style="stroke:#2D6D66;stroke-width:8.64"/>
	<line x1="1782.25" y1="1163.04" x2="1789.55" y2="1153.01" stroke-linecap="round" style="stroke:#2D6D66;stroke-width:8.64"/>
	<line x1="1789.55" y1="1153.01" x2="1796.73" y2="1143.11" stroke-linecap="round" style="stroke:#2D6D66;stroke-width:8.64"/>
	<line x1="1796.73" y1="1143.11" x2="1804.03" y2="1133.09" stroke-linecap="round" style="stroke:#2D6D66;stroke-width:8.64"/>
	<line x1="1804.03" y1="1133.09" x2="1811.33" y2="1123.07" stroke-linecap="round" style="stroke:#2D6D66;stroke-width:8.64"/>
	<line x1="1811.33" y1="1123.07" x2="1818.51" y2="1113.04" stroke-linecap="round" style="stroke:#2D6D66;stroke-width:8.64"/>
	<line x1="1818.51" y1="1113.04" x2="1825.81" y2="1103.14" stroke-linecap="round" style="stroke:#2D6D66;stroke-width:8.64"/>
	<line x1="1825.81" y1="1103.14" x2="1833.11" y2="1093.12" stroke-linecap="round" style="stroke:#2D6D66;stroke-width:8.64"/>
	<line x1="1833.11" y1="1093.12" x2="1840.29" y2="1083.22" stroke-linecap="round" style="stroke:#2D6D66;stroke-width:8.64"/>
	<line x1="1840.29" y1="1083.22" x2="1847.59" y2="1073.32" stroke-linecap="round" style="stroke:#2D6D66;stroke-width:8.64"/>
	<line x1="1847.59" y1="1073.32" x2="1854.77" y2="1063.42" stroke-linecap="round" style="stroke:#2D6D66;stroke-width:8.64"/>
	<line x1="1854.77" y1="1063.42" x2="1862.07" y2="1053.52" stroke-linecap="round" style="stroke:#2D6D66;stroke-width:8.64"/>
	<line x1="1862.07" y1="1053.52" x2="1869.37" y2="1043.62" stroke-linecap="round" style="stroke:#2D6D66;stroke-width:8.64"/>
	<line x1="1869.37" y1="1043.62" x2="1876.55" y2="1033.84" stroke-linecap="round" style="stroke:#2D6D66;stroke-width:8.64"/>
	<line x1="1876.55" y1="1033.84" x2="1883.85" y2="1024.06" stroke-linecap="round" style="stroke:#2D6D66;stroke-width:8.64"/>
	<line x1="1883.85" y1="1024.06" x2="1891.15" y2="1014.41" stroke-linecap="round" style="stroke:#2D6D66;stroke-width:8.64"/>
	<line x1="1891.15" y1="1014.41" x2="1898.33" y2="1004.76" stroke-linecap="round" style="stroke:#2D6D66;stroke-width:8.64"/>
	<line x1="1898.33" y1="1004.76" x2="1905.63" y2="995.10" stroke-linecap="round" style="stroke:#2D6D66;stroke-width:8.64"/>
	<line x1="1905.63" y1="995.10" x2="1912.93" y2="985.45" stroke-linecap="round" style="stroke:#2D6D66;stroke-width:8.64"/>
	<line x1="1912.93" y1="985.45" x2="1920.11" y2="975.92" stroke-linecap="round" style="stroke:#2D6D66;stroke-width:8.64"/>
	<line x1="1920.11" y1="975.92" x2="1927.41" y2="966.52" stroke-linecap="round" style="stroke:#2D6D66;stroke-width:8.64"/>
	<line x1="1927.41" y1="966.52" x2="1934.58" y2="957.11" stroke-linecap="round" style="stroke:#2D6D66;stroke-width:8.64"/>
	<line x1="1934.58" y1="957.11" x2="1941.88" y2="947.83" stroke-linecap="round" style="stroke:#2D6D66;stroke-width:8.64"/>
	<line x1="1941.88" y1="947.83" x2="1949.19" y2="938.55" stroke-linecap="round" style="stroke:#2D6D66;stroke-width:8.64"/>
	<line x1="1949.19" y1="938.55" x2="1956.36" y2="929.27" stroke-linecap="round" style="stroke:#2D6D66;stroke-width:8.64"/>
	<line x1="1956.36" y1="929.27" x2="1963.66" y2="920.23" stroke-linecap="round" style="stroke:#2D6D66;stroke-width:8.64"/>
	<line x1="1963.66" y1="920.23" x2="1970.97" y2="911.20" stroke-linecap="round" style="stroke:#2D6D66;stroke-width:8.64"/>
	<line x1="1970.97" y1="911.20" x2="1978.14" y2="902.17" stroke-linecap="round" style="stroke:#2D6D66;stroke-width:8.64"/>
	<line x1="1978.14" y1="902.17" x2="1985.44" y2="893.38" stroke-linecap="round" style="stroke:#2D6D66;stroke-width:8.64"/>
	<line x1="1985.44" y1="893.38" x2="1992.62" y2="884.59" stroke-linecap="round" style="stroke:#2D6D66;stroke-width:8.64"/>
	<line x1="1992.62" y1="884.59" x2="1999.92" y2="875.93" stroke-linecap="round" style="stroke:#2D6D66;stroke-width:8.64"/>
	<line x1="1999.92" y1="875.93" x2="2007.22" y2="867.27" stroke-linecap="round" style="stroke:#2D6D66;stroke-width:8.64"/>
	<line x1="2007.22" y1="867.27" x2="2014.40" y2="858.85" stroke-linecap="round" style="stroke:#2D6D66;stroke-width:8.64"/>
	<line x1="2014.40" y1="858.85" x2="2021.70" y2="850.44" stroke-linecap="round" style="stroke:#2D6D66;stroke-width:8.64"/>
	<line x1="2021.70" y1="850.44" x2="2029.01" y2="842.15" stroke-linecap="round" style="stroke:#2D6D66;stroke-width:8.64"/>
	<line x1="2029.01" y1="842.15" x2="2036.18" y2="833.98" stroke-linecap="round" style="stroke:#2D6D66;stroke-width:8.64"/>
	<line x1="2036.18" y1="833.98" x2="2043.48" y2="825.93" stroke-linecap="round" style="stroke:#2D6D66;stroke-width:8.64"/>
	<line x1="2043.48" y1="825.93" x2="2050.78" y2="818.01" stroke-linecap="round" style="stroke:#2D6D66;stroke-width:8.64"/>
	<line x1="2050.78" y1="818.01" x2="2057.96" y2="810.22" stroke-linecap="round" style="stroke:#2D6D66;stroke-width:8.64"/>
	<line x1="2057.96" y1="810.22" x2="2065.26" y2="802.54" stroke-linecap="round" style="stroke:#2D6D66;stroke-width:8.64"/>
	<line x1="2065.26" y1="802.54" x2="2072.44" y2="794.99" stroke-linecap="round" style="stroke:#2D6D66;stroke-width:8.64"/>
	<line x1="2072.44" y1="794.99" x2="2079.74" y2="787.57" stroke-linecap="round" style="stroke:#2D6D66;stroke-width:8.64"/>
	<line x1="2079.74" y1="787.57" x2="2087.04" y2="780.27" stroke-linecap="round" style="stroke:#2D6D66;stroke-width:8.64"/>
	<line x1="2087.04" y1="780.27" x2="2094.22" y2="773.09" stroke-linecap="round" style="stroke:#2D6D66;stroke-width:8.64"/>
	<line x1="2094.22" y1="773.09" x2="2101.52" y2="766.16" stroke-linecap="round" style="stroke:#2D6D66;stroke-width:8.64"/>
	<line x1="2101.52" y1="766.16" x2="2108.82" y2="759.23" stroke-linecap="round" style="stroke:#2D6D66;stroke-width:8.64"/>
	<line x1="2108.82" y1="759.23" x2="2116.00" y2="752.55" stroke-linecap="round" style="stroke:#2D6D66;stroke-width:8.64"/>
	<line x1="2116.00" y1="752.55" x2="2123.30" y2="745.99" stroke-linecap="round" style="stroke:#2D6D66;stroke-width:8.64"/>
	<line x1="2123.30" y1="745.99" x2="2130.48" y2="739.55" stroke-linecap="round" style="stroke:#2D6D66;stroke-width:8.64"/>
	<line x1="2130.48" y1="739.55" x2="2137.78" y2="733.24" stroke-linecap="round" style="stroke:#2D6D66;stroke-width:8.64"/>
	<line x1="2137.78" y1="733.24" x2="2145.08" y2="727.18" stroke-linecap="round" style="stroke:#2D6D66;stroke-width:8.64"/>
	<line x1="2145.08" y1="727.18" x2="2152.26" y2="721.11" stroke-linecap="round" style="stroke:#2D6D66;stroke-width:8.64"/>
	<line x1="2152.26" y1="721.11" x2="2159.56" y2="715.42" stroke-linecap="round" style="stroke:#2D6D66;stroke-width:8.64"/>
	<line x1="2159.56" y1="715.42" x2="2166.86" y2="709.73" stroke-linecap="round" style="stroke:#2D6D66;stroke-width:8.64"/>
	<line x1="2166.86" y1="709.73" x2="2174.04" y2="704.28" stroke-linecap="round" style="stroke:#2D6D66;stroke-width:8.64"/>
	<line x1="2174.04" y1="704.28" x2="2181.34" y2="698.96" stroke-linecap="round" style="stroke:#2D6D66;stroke-width:8.64"/>
	<line x1="2181.34" y1="698.96" x2="2188.64" y2="693.89" stroke-linecap="round" style="stroke:#2D6D66;stroke-width:8.64"/>
	<line x1="2188.64" y1="693.89" x2="2195.82" y2="688.94" stroke-linecap="round" style="stroke:#2D6D66;stroke-width:8.64"/>
	<line x1="2195.82" y1="688.94" x2="2203.12" y2="684.24" stroke-linecap="round" style="stroke:#2D6D66;stroke-width:8.64"/>
	<line x1="2203.12" y1="684.24" x2="2210.30" y2="679.53" stroke-linecap="round" style="stroke:#2D6D66;stroke-width:8.64"/>
	<line x1="2210.30" y1="679.53" x2="2217.60" y2="675.20" stroke-linecap="round" style="stroke:#2D6D66;stroke-width:8.64"/>
	<line x1="2217.60" y1="675.20" x2="2224.90" y2="670.99" stroke-linecap="round" style="stroke:#2D6D66;stroke-width:8.64"/>
	<line x1="2224.90" y1="670.99" x2="2232.08" y2="666.91" stroke-linecap="round" style="stroke:#2D6D66;stroke-width:8.64"/>
	<line x1="2232.08" y1="666.91" x2="2239.38" y2="663.07" stroke-linecap="round" style="stroke:#2D6D66;stroke-width:8.64"/>
	<line x1="2239.38" y1="663.07" x2="2246.68" y2="659.36" stroke-linecap="round" style="stroke:#2D6D66;stroke-width:8.64"/>
	<line x1="2246.68" y1="659.36" x2="2253.86" y2="655.90" stroke-linecap="round" style="stroke:#2D6D66;stroke-width:8.64"/>
	<line x1="2253.86" y1="655.90" x2="2261.16" y2="652.68" stroke-linecap="round" style="stroke:#2D6D66;stroke-width:8.64"/>
	<line x1="2261.16" y1="652.68" x2="2268.46" y2="649.58" stroke-linecap="round" style="stroke:#2D6D66;stroke-width:8.64"/>
	<line x1="2268.46" y1="649.58" x2="2275.64" y2="646.61" stroke-linecap="round" style="stroke:#2D6D66;stroke-width:8.64"/>
	<line x1="2275.64" y1="646.61" x2="2282.94" y2="644.02" stroke-linecap="round" style="stroke:#2D6D66;stroke-width:8.64"/>
	<line x1="2282.94" y1="644.02" x2="2290.12" y2="641.42" stroke-linecap="round" style="stroke:#2D6D66;stroke-width:8.64"/>
	<line x1="2290.12" y1="641.42" x2="2297.42" y2="639.19" stroke-linecap="round" style="stroke:#2D6D66;stroke-width:8.64"/>
	<line x1="2297.42" y1="639.19" x2="2304.72" y2="637.08" stroke-linecap="round" style="stroke:#2D6D66;stroke-width:8.64"/>
	<line x1="2304.72" y1="637.08" x2="2311.90" y2="635.10" stroke-linecap="round" style="stroke:#2D6D66;stroke-width:8.64"/>
	<line x1="2311.90" y1="635.10" x2="2319.20" y2="633.50" stroke-linecap="round" style="stroke:#2D6D66;stroke-width:8.64"/>
	<line x1="2319.20" y1="633.50" x2="2326.50" y2="632.01" stroke-linecap="round" style="stroke:#2D6D66;stroke-width:8.64"/>
	<line x1="2326.50" y1="632.01" x2="2333.68" y2="630.65" stroke-linecap="round" style="stroke:#2D6D66;stroke-width:8.64"/>
	<line x1="2333.68" y1="630.65" x2="2340.98" y2="629.54" stroke-linecap="round" style="stroke:#2D6D66;stroke-width:8.64"/>
	<line x1="2340.98" y1="629.54" x2="2348.16" y2="628.67" stroke-linecap="round" style="stroke:#2D6D66;stroke-width:8.64"/>
	<line x1="2348.16" y1="628.67" x2="2355.46" y2="628.05" stroke-linecap="round" style="stroke:#2D6D66;stroke-width:8.64"/>
	<line x1="2355.46" y1="628.05" x2="2362.76" y2="627.56" stroke-linecap="round" style="stroke:#2D6D66;stroke-width:8.64"/>
	<line x1="2362.76" y1="627.56" x2="2369.94" y2="627.18" stroke-linecap="round" style="stroke:#2D6D66;stroke-width:8.64"/>
	<line x1="2369.94" y1="627.18" x2="2377.24" y2="627.18" stroke-linecap="round" style="stroke:#2D6D66;stroke-width:8.64"/>
	<line x1="2377.24" y1="627.18" x2="2384.54" y2="627.31" stroke-linecap="round" style="stroke:#2D6D66;stroke-width:8.64"/>
	<line x1="2384.54" y1="627.31" x2="2391.72" y2="627.68" stroke-linecap="round" style="stroke:#2D6D66;stroke-width:8.64"/>
	<line x1="2391.72" y1="627.68" x2="2399.02" y2="628.17" stroke-linecap="round" style="stroke:#2D6D66;stroke-width:8.64"/>
	<line x1="2399.02" y1="628.17" x2="2406.32" y2="628.92" stroke-linecap="round" style="stroke:#2D6D66;stroke-width:8.64"/>
	<line x1="2406.32" y1="628.92" x2="2413.50" y2="629.91" stroke-linecap="round" style="stroke:#2D6D66;stroke-width:8.64"/>
	<line x1="2413.50" y1="629.91" x2="2420.80" y2="631.02" stroke-linecap="round" style="stroke:#2D6D66;stroke-width:8.64"/>
	<line x1="2420.80" y1="631.02" x2="2427.97" y2="632.38" stroke-linecap="round" style="stroke:#2D6D66;stroke-width:8.64"/>
	<line x1="2427.97" y1="632.38" x2="2435.28" y2="633.99" stroke-linecap="round" style="stroke:#2D6D66;stroke-width:8.64"/>
	<line x1="2435.28" y1="633.99" x2="2442.58" y2="635.72" stroke-linecap="round" style="stroke:#2D6D66;stroke-width:8.64"/>
	<line x1="2442.58" y1="635.72" x2="2449.76" y2="637.70" stroke-linecap="round" style="stroke:#2D6D66;stroke-width:8.64"/>
	<line x1="2449.76" y1="637.70" x2="2457.06" y2="639.81" stroke-linecap="round" style="stroke:#2D6D66;stroke-width:8.64"/>
	<line x1="2457.06" y1="639.81" x2="2464.36" y2="642.16" stroke-linecap="round" style="stroke:#2D6D66;stroke-width:8.64"/>
	<line x1="2464.36" y1="642.16" x2="2471.53" y2="644.76" stroke-linecap="round" style="stroke:#2D6D66;stroke-width:8.64"/>
	<line x1="2471.53" y1="644.76" x2="2478.84" y2="647.48" stroke-linecap="round" style="stroke:#2D6D66;stroke-width:8.64"/>
	<line x1="2478.84" y1="647.48" x2="2486.01" y2="650.45" stroke-linecap="round" style="stroke:#2D6D66;stroke-width:8.64"/>
	<line x1="2486.01" y1="650.45" x2="2493.32" y2="653.67" stroke-linecap="round" style="stroke:#2D6D66;stroke-width:8.64"/>
	<line x1="2493.32" y1="653.67" x2="2500.62" y2="657.01" stroke-linecap="round" style="stroke:#2D6D66;stroke-width:8.64"/>
	<line x1="2500.62" y1="657.01" x2="2507.79" y2="660.47" stroke-linecap="round" style="stroke:#2D6D66;stroke-width:8.64"/>
	<line x1="2507.79" y1="660.47" x2="2515.09" y2="664.19" stroke-linecap="round" style="stroke:#2D6D66;stroke-width:8.64"/>
	<line x1="2515.09" y1="664.19" x2="2522.40" y2="668.15" stroke-linecap="round" style="stroke:#2D6D66;stroke-width:8.64"/>
	<line x1="2522.40" y1="668.15" x2="2529.57" y2="672.23" stroke-linecap="round" style="stroke:#2D6D66;stroke-width:8.64"/>
	<line x1="2529.57" y1="672.23" x2="2536.88" y2="676.56" stroke-linecap="round" style="stroke:#2D6D66;stroke-width:8.64"/>
	<line x1="2536.88" y1="676.56" x2="2544.18" y2="681.02" stroke-linecap="round" style="stroke:#2D6D66;stroke-width:8.64"/>
	<line x1="2544.18" y1="681.02" x2="2551.35" y2="685.60" stroke-linecap="round" style="stroke:#2D6D66;stroke-width:8.64"/>
	<line x1="2551.35" y1="685.60" x2="2558.66" y2="690.42" stroke-linecap="round" style="stroke:#2D6D66;stroke-width:8.64"/>
	<line x1="2558.66" y1="690.42" x2="2565.83" y2="695.37" stroke-linecap="round" style="stroke:#2D6D66;stroke-width:8.64"/>
	<line x1="2565.83" y1="695.37" x2="2573.13" y2="700.57" stroke-linecap="round" style="stroke:#2D6D66;stroke-width:8.64"/>
	<line x1="2573.13" y1="700.57" x2="2580.43" y2="705.89" stroke-linecap="round" style="stroke:#2D6D66;stroke-width:8.64"/>
	<line x1="2580.43" y1="705.89" x2="2587.61" y2="711.46" stroke-linecap="round" style="stroke:#2D6D66;stroke-width:8.64"/>
	<line x1="2587.61" y1="711.46" x2="2594.91" y2="717.15" stroke-linecap="round" style="stroke:#2D6D66;stroke-width:8.64"/>
	<line x1="2594.91" y1="717.15" x2="2602.22" y2="722.97" stroke-linecap="round" style="stroke:#2D6D66;stroke-width:8.64"/>
	<line x1="2602.22" y1="722.97" x2="2609.39" y2="729.03" stroke-linecap="round" style="stroke:#2D6D66;stroke-width:8.64"/>
	<line x1="2609.39" y1="729.03" x2="2616.69" y2="735.10" stroke-linecap="round" style="stroke:#2D6D66;stroke-width:8.64"/>
	<line x1="2616.69" y1="735.10" x2="2623.99" y2="741.41" stroke-linecap="round" style="stroke:#2D6D66;stroke-width:8.64"/>
	<line x1="2623.99" y1="741.41" x2="2631.17" y2="747.97" stroke-linecap="round" style="stroke:#2D6D66;stroke-width:8.64"/>
	<line x1="2631.17" y1="747.97" x2="2638.47" y2="754.53" stroke-linecap="round" style="stroke:#2D6D66;stroke-width:8.64"/>
	<line x1="2638.47" y1="754.53" x2="2645.65" y2="761.33" stroke-linecap="round" style="stroke:#2D6D66;stroke-width:8.64"/>
	<line x1="2645.65" y1="761.33" x2="2652.95" y2="768.26" stroke-linecap="round" style="stroke:#2D6D66;stroke-width:8.64"/>
	<line x1="2652.95" y1="768.26" x2="2660.25" y2="775.32" stroke-linecap="round" style="stroke:#2D6D66;stroke-width:8.64"/>
	<line x1="2660.25" y1="775.32" x2="2667.43" y2="782.50" stroke-linecap="round" style="stroke:#2D6D66;stroke-width:8.64"/>
	<line x1="2667.43" y1="782.50" x2="2674.73" y2="789.80" stroke-linecap="round" style="stroke:#2D6D66;stroke-width:8.64"/>
	<line x1="2674.73" y1="789.80" x2="2682.03" y2="797.35" stroke-linecap="round" style="stroke:#2D6D66;stroke-width:8.64"/>
	<line x1="2682.03" y1="797.35" x2="2689.21" y2="804.90" stroke-linecap="round" style="stroke:#2D6D66;stroke-width:8.64"/>
	<line x1="2689.21" y1="804.90" x2="2696.51" y2="812.57" stroke-linecap="round" style="stroke:#2D6D66;stroke-width:8.64"/>
	<line x1="2696.51" y1="812.57" x2="2703.69" y2="820.49" stroke-linecap="round" style="stroke:#2D6D66;stroke-width:8.64"/>
	<line x1="2703.69" y1="820.49" x2="2710.99" y2="828.41" stroke-linecap="round" style="stroke:#2D6D66;stroke-width:8.64"/>
	<line x1="2710.99" y1="828.41" x2="2718.29" y2="836.45" stroke-linecap="round" style="stroke:#2D6D66;stroke-width:8.64"/>
	<line x1="2718.29" y1="836.45" x2="2725.47" y2="844.74" stroke-linecap="round" style="stroke:#2D6D66;stroke-width:8.64"/>
	<line x1="2725.47" y1="844.74" x2="2732.77" y2="853.04" stroke-linecap="round" style="stroke:#2D6D66;stroke-width:8.64"/>
	<line x1="2732.77" y1="853.04" x2="2740.07" y2="861.45" stroke-linecap="round" style="stroke:#2D6D66;stroke-width:8.64"/>
	<line x1="2740.07" y1="861.45" x2="2747.25" y2="869.99" stroke-linecap="round" style="stroke:#2D6D66;stroke-width:8.64"/>
	<line x1="2747.25" y1="869.99" x2="2754.55" y2="878.53" stroke-linecap="round" style="stroke:#2D6D66;stroke-width:8.64"/>
	<line x1="2754.55" y1="878.53" x2="2761.85" y2="887.32" stroke-linecap="round" style="stroke:#2D6D66;stroke-width:8.64"/>
	<line x1="2761.85" y1="887.32" x2="2769.03" y2="896.10" stroke-linecap="round" style="stroke:#2D6D66;stroke-width:8.64"/>
	<line x1="2769.03" y1="896.10" x2="2776.33" y2="905.01" stroke-linecap="round" style="stroke:#2D6D66;stroke-width:8.64"/>
	<line x1="2776.33" y1="905.01" x2="2783.51" y2="913.92" stroke-linecap="round" style="stroke:#2D6D66;stroke-width:8.64"/>
	<line x1="2783.51" y1="913.92" x2="2790.81" y2="922.96" stroke-linecap="round" style="stroke:#2D6D66;stroke-width:8.64"/>
	<line x1="2790.81" y1="922.96" x2="2798.11" y2="932.11" stroke-linecap="round" style="stroke:#2D6D66;stroke-width:8.64"/>
	<line x1="2798.11" y1="932.11" x2="2805.29" y2="941.40" stroke-linecap="round" style="stroke:#2D6D66;stroke-width:8.64"/>
	<line x1="2805.29" y1="941.40" x2="2812.59" y2="950.68" stroke-linecap="round" style="stroke:#2D6D66;stroke-width:8.64"/>
	<line x1="2812.59" y1="950.68" x2="2819.89" y2="959.96" stroke-linecap="round" style="stroke:#2D6D66;stroke-width:8.64"/>
	<line x1="2819.89" y1="959.96" x2="2827.07" y2="969.36" stroke-linecap="round" style="stroke:#2D6D66;stroke-width:8.64"/>
	<line x1="2827.07" y1="969.36" x2="2834.37" y2="978.89" stroke-linecap="round" style="stroke:#2D6D66;stroke-width:8.64"/>
	<line x1="2834.37" y1="978.89" x2="2841.55" y2="988.42" stroke-linecap="round" style="stroke:#2D6D66;stroke-width:8.64"/>
	<line x1="2841.55" y1="988.42" x2="2848.85" y2="998.07" stroke-linecap="round" style="stroke:#2D6D66;stroke-width:8.64"/>
	<line x1="2848.85" y1="998.07" x2="2856.15" y2="1007.73" stroke-linecap="round" style="stroke:#2D6D66;stroke-width:8.64"/>
	<line x1="2856.15" y1="1007.73" x2="2863.33" y2="1017.38" stroke-linecap="round" style="stroke:#2D6D66;stroke-width:8.64"/>
	<line x1="2863.33" y1="1017.38" x2="2870.63" y2="1027.16" stroke-linecap="round" style="stroke:#2D6D66;stroke-width:8.64"/>
	<line x1="2870.63" y1="1027.16" x2="2877.93" y2="1036.93" stroke-linecap="round" style="stroke:#2D6D66;stroke-width:8.64"/>
	<line x1="2877.93" y1="1036.93" x2="2885.11" y2="1046.71" stroke-linecap="round" style="stroke:#2D6D66;stroke-width:8.64"/>
	<line x1="2885.11" y1="1046.71" x2="2892.41" y2="1056.49" stroke-linecap="round" style="stroke:#2D6D66;stroke-width:8.64"/>
	<line x1="2892.41" y1="1056.49" x2="2899.71" y2="1066.39" stroke-linecap="round" style="stroke:#2D6D66;stroke-width:8.64"/>
	<line x1="2899.71" y1="1066.39" x2="2906.89" y2="1076.29" stroke-linecap="round" style="stroke:#2D6D66;stroke-width:8.64"/>
	<line x1="2906.89" y1="1076.29" x2="2914.19" y2="1086.19" stroke-linecap="round" style="stroke:#2D6D66;stroke-width:8.64"/>
	<line x1="2914.19" y1="1086.19" x2="2921.37" y2="1096.21" stroke-linecap="round" style="stroke:#2D6D66;stroke-width:8.64"/>
	<line x1="2921.37" y1="1096.21" x2="2928.67" y2="1106.11" stroke-linecap="round" style="stroke:#2D6D66;stroke-width:8.64"/>
	<line x1="2928.67" y1="1106.11" x2="2935.97" y2="1116.14" stroke-linecap="round" style="stroke:#2D6D66;stroke-width:8.64"/>
	<line x1="2935.97" y1="1116.14" x2="2943.15" y2="1126.16" stroke-linecap="round" style="stroke:#2D6D66;stroke-width:8.64"/>
	<line x1="2943.15" y1="1126.16" x2="2950.45" y2="1136.06" stroke-linecap="round" style="stroke:#2D6D66;stroke-width:8.64"/>
	<line x1="2950.45" y1="1136.06" x2="2957.75" y2="1146.08" stroke-linecap="round" style="stroke:#2D6D66;stroke-width:8.64"/>
	<line x1="2957.75" y1="1146.08" x2="2964.93" y2="1156.11" stroke-linecap="round" style="stroke:#2D6D66;stroke-width:8.64"/>
	<line x1="2964.93" y1="1156.11" x2="2972.23" y2="1166.13" stroke-linecap="round" style="stroke:#2D6D66;stroke-width:8.64"/>
	<line x1="2972.23" y1="1166.13" x2="2979.53" y2="1176.16" stroke-linecap="round" style="stroke:#2D6D66;stroke-width:8.64"/>
	<line x1="2979.53" y1="1176.16" x2="2986.71" y2="1186.06" stroke-linecap="round" style="stroke:#2D6D66;stroke-width:8.64"/>
	<line x1="2986.71" y1="1186.06" x2="2994.01" y2="1196.08" stroke-linecap="round" style="stroke:#2D6D66;stroke-width:8.64"/>
	<line x1="2994.01" y1="1196.08" x2="3001.18" y2="1205.98" stroke-linecap="round" style="stroke:#2D6D66;stroke-width:8.64"/>
	<line x1="3001.18" y1="1205.98" x2="3008.49" y2="1216.01" stroke-linecap="round" style="stroke:#2D6D66;stroke-width:8.64"/>
	<line x1="3008.49" y1="1216.01" x2="3015.79" y2="1225.91" stroke-linecap="round" style="stroke:#2D6D66;stroke-width:8.64"/>
	<line x1="3015.79" y1="1225.91" x2="3022.97" y2="1235.81" stroke-linecap="round" style="stroke:#2D6D66;stroke-width:8.64"/>
	<line x1="3022.97" y1="1235.81" x2="3030.27" y2="1245.71" stroke-linecap="round" style="stroke:#2D6D66;stroke-width:8.64"/>
	<line x1="3030.27" y1="1245.71" x2="3037.57" y2="1255.48" stroke-linecap="round" style="stroke:#2D6D66;stroke-width:8.64"/>
	<line x1="3037.57" y1="1255.48" x2="3044.74" y2="1265.38" stroke-linecap="round" style="stroke:#2D6D66;stroke-width:8.64"/>
	<line x1="3044.74" y1="1265.38" x2="3052.05" y2="1275.16" stroke-linecap="round" style="stroke:#2D6D66;stroke-width:8.64"/>
	<line x1="3052.05" y1="1275.16" x2="3059.22" y2="1284.81" stroke-linecap="round" style="stroke:#2D6D66;stroke-width:8.64"/>
	<line x1="3059.22" y1="1284.81" x2="3066.53" y2="1294.59" stroke-linecap="round" style="stroke:#2D6D66;stroke-width:8.64"/>
	<line x1="3066.53" y1="1294.59" x2="3073.83" y2="1304.24" stroke-linecap="round" style="stroke:#2D6D66;stroke-width:8.64"/>
	<line x1="3073.83" y1="1304.24" x2="3081.00" y2="1313.89" stroke-linecap="round" style="stroke:#2D6D66;stroke-width:8.64"/>
	<line x1="3081.00" y1="1313.89" x2="3088.30" y2="1323.42" stroke-linecap="round" style="stroke:#2D6D66;stroke-width:8.64"/>
	<line x1="3088.30" y1="1323.42" x2="3095.61" y2="1332.95" stroke-linecap="round" style="stroke:#2D6D66;stroke-width:8.64"/>
	<line x1="3095.61" y1="1332.95" x2="3102.78" y2="1342.48" stroke-linecap="round" style="stroke:#2D6D66;stroke-width:8.64"/>
	<line x1="3102.78" y1="1342.48" x2="3110.09" y2="1351.89" stroke-linecap="round" style="stroke:#2D6D66;stroke-width:8.64"/>
	<line x1="3110.09" y1="1351.89" x2="3117.39" y2="1361.29" stroke-linecap="round" style="stroke:#2D6D66;stroke-width:8.64"/>
	<line x1="3117.39" y1="1361.29" x2="3124.56" y2="1370.57" stroke-linecap="round" style="stroke:#2D6D66;stroke-width:8.64"/>
	<line x1="3124.56" y1="1370.57" x2="3131.86" y2="1379.86" stroke-linecap="round" style="stroke:#2D6D66;stroke-width:8.64"/>
	<line x1="3131.86" y1="1379.86" x2="3139.04" y2="1389.01" stroke-linecap="round" style="stroke:#2D6D66;stroke-width:8.64"/>
	<line x1="3139.04" y1="1389.01" x2="3146.34" y2="1398.17" stroke-linecap="round" style="stroke:#2D6D66;stroke-width:8.64"/>
	<line x1="3146.34" y1="1398.17" x2="3153.64" y2="1407.33" stroke-linecap="round" style="stroke:#2D6D66;stroke-width:8.64"/>
	<line x1="3153.64" y1="1407.33" x2="3160.82" y2="1416.36" stroke-linecap="round" style="stroke:#2D6D66;stroke-width:8.64"/>
	<line x1="3160.82" y1="1416.36" x2="3168.12" y2="1425.27" stroke-linecap="round" style="stroke:#2D6D66;stroke-width:8.64"/>
	<line x1="3168.12" y1="1425.27" x2="3175.43" y2="1434.18" stroke-linecap="round" style="stroke:#2D6D66;stroke-width:8.64"/>
	<line x1="3175.43" y1="1434.18" x2="3182.60" y2="1442.97" stroke-linecap="round" style="stroke:#2D6D66;stroke-width:8.64"/>
	<line x1="3182.60" y1="1442.97" x2="3189.90" y2="1451.63" stroke-linecap="round" style="stroke:#2D6D66;stroke-width:8.64"/>
	<line x1="3189.90" y1="1451.63" x2="3197.08" y2="1460.30" stroke-linecap="round" style="stroke:#2D6D66;stroke-width:8.64"/>
	<line x1="3197.08" y1="1460.30" x2="3204.38" y2="1468.96" stroke-linecap="round" style="stroke:#2D6D66;stroke-width:8.64"/>
	<line x1="3204.38" y1="1468.96" x2="3211.68" y2="1477.37" stroke-linecap="round" style="stroke:#2D6D66;stroke-width:8.64"/>
	<line x1="3211.68" y1="1477.37" x2="3218.86" y2="1485.91" stroke-linecap="round" style="stroke:#2D6D66;stroke-width:8.64"/>
	<line x1="3218.86" y1="1485.91" x2="3226.16" y2="1494.20" stroke-linecap="round" style="stroke:#2D6D66;stroke-width:8.64"/>
	<line x1="3226.16" y1="1494.20" x2="3233.46" y2="1502.50" stroke-linecap="round" style="stroke:#2D6D66;stroke-width:8.64"/>
	<line x1="3233.46" y1="1502.50" x2="3240.64" y2="1510.66" stroke-linecap="round" style="stroke:#2D6D66;stroke-width:8.64"/>
	<line x1="3240.64" y1="1510.66" x2="3247.94" y2="1518.83" stroke-linecap="round" style="stroke:#2D6D66;stroke-width:8.64"/>
	<line x1="3247.94" y1="1518.83" x2="3255.24" y2="1526.88" stroke-linecap="round" style="stroke:#2D6D66;stroke-width:8.64"/>
	<line x1="3255.24" y1="1526.88" x2="3262.42" y2="1534.80" stroke-linecap="round" style="stroke:#2D6D66;stroke-width:8.64"/>
	<line x1="3262.42" y1="1534.80" x2="3269.72" y2="1542.72" stroke-linecap="round" style="stroke:#2D6D66;stroke-width:8.64"/>
	<line x1="3269.72" y1="1542.72" x2="3276.90" y2="1550.39" stroke-linecap="round" style="stroke:#2D6D66;stroke-width:8.64"/>
	<line x1="3276.90" y1="1550.39" x2="3284.20" y2="1558.18" stroke-linecap="round" style="stroke:#2D6D66;stroke-width:8.64"/>
	<line x1="3284.20" y1="1558.18" x2="3291.50" y2="1565.73" stroke-linecap="round" style="stroke:#2D6D66;stroke-width:8.64"/>
	<line x1="3291.50" y1="1565.73" x2="3298.68" y2="1573.28" stroke-linecap="round" style="stroke:#2D6D66;stroke-width:8.64"/>
	<line x1="3298.68" y1="1573.28" x2="3305.98" y2="1580.71" stroke-linecap="round" style="stroke:#2D6D66;stroke-width:8.64"/>
	<line x1="3305.98" y1="1580.71" x2="3313.28" y2="1588.01" stroke-linecap="round" style="stroke:#2D6D66;stroke-width:8.64"/>
	<line x1="3313.28" y1="1588.01" x2="3320.46" y2="1595.31" stroke-linecap="round" style="stroke:#2D6D66;stroke-width:8.64"/>
	<line x1="3320.46" y1="1595.31" x2="3327.76" y2="1602.49" stroke-linecap="round" style="stroke:#2D6D66;stroke-width:8.64"/>
	<line x1="3327.76" y1="1602.49" x2="3335.06" y2="1609.54" stroke-linecap="round" style="stroke:#2D6D66;stroke-width:8.64"/>
	<line x1="3335.06" y1="1609.54" x2="3342.24" y2="1616.47" stroke-linecap="round" style="stroke:#2D6D66;stroke-width:8.64"/>
	<line x1="3342.24" y1="1616.47" x2="3349.54" y2="1623.40" stroke-linecap="round" style="stroke:#2D6D66;stroke-width:8.64"/>
	<line x1="3349.54" y1="1623.40" x2="3356.72" y2="1630.21" stroke-linecap="round" style="stroke:#2D6D66;stroke-width:8.64"/>
	<line x1="3356.72" y1="1630.21" x2="3364.02" y2="1636.89" stroke-linecap="round" style="stroke:#2D6D66;stroke-width:8.64"/>
	<line x1="3364.02" y1="1636.89" x2="3371.32" y2="1643.58" stroke-linecap="round" style="stroke:#2D6D66;stroke-width:8.64"/>
	<line x1="3371.32" y1="1643.58" x2="3378.50" y2="1650.01" stroke-linecap="round" style="stroke:#2D6D66;stroke-width:8.64"/>
	<line x1="3378.50" y1="1650.01" x2="3385.80" y2="1656.45" stroke-linecap="round" style="stroke:#2D6D66;stroke-width:8.64"/>
	<line x1="3385.80" y1="1656.45" x2="3393.10" y2="1662.88" stroke-linecap="round" style="stroke:#2D6D66;stroke-width:8.64"/>
	<line x1="3393.10" y1="1662.88" x2="3400.28" y2="1669.07" stroke-linecap="round" style="stroke:#2D6D66;stroke-width:8.64"/>
	<line x1="3400.28" y1="1669.07" x2="3407.58" y2="1675.26" stroke-linecap="round" style="stroke:#2D6D66;stroke-width:8.64"/>
	<line x1="3407.58" y1="1675.26" x2="3414.76" y2="1681.32" stroke-linecap="round" style="stroke:#2D6D66;stroke-width:8.64"/>
	<line x1="3414.76" y1="1681.32" x2="3422.06" y2="1687.26" stroke-linecap="round" style="stroke:#2D6D66;stroke-width:8.64"/>
	<line x1="3422.06" y1="1687.26" x2="3429.36" y2="1693.20" stroke-linecap="round" style="stroke:#2D6D66;stroke-width:8.64"/>
	<line x1="3429.36" y1="1693.20" x2="3436.54" y2="1699.02" stroke-linecap="round" style="stroke:#2D6D66;stroke-width:8.64"/>
	<line x1="3436.54" y1="1699.02" x2="3443.84" y2="1704.71" stroke-linecap="round" style="stroke:#2D6D66;stroke-width:8.64"/>
	<line x1="3443.84" y1="1704.71" x2="3451.14" y2="1710.28" stroke-linecap="round" style="stroke:#2D6D66;stroke-width:8.64"/>
	<line x1="3451.14" y1="1710.28" x2="3458.32" y2="1715.85" stroke-linecap="round" style="stroke:#2D6D66;stroke-width:8.64"/>
	<line x1="3458.32" y1="1715.85" x2="3465.62" y2="1721.29" stroke-linecap="round" style="stroke:#2D6D66;stroke-width:8.64"/>
	<line x1="3465.62" y1="1721.29" x2="3472.92" y2="1726.61" stroke-linecap="round" style="stroke:#2D6D66;stroke-width:8.64"/>
	<line x1="3472.92" y1="1726.61" x2="3480.10" y2="1731.94" stroke-linecap="round" style="stroke:#2D6D66;stroke-width:8.64"/>
	<line x1="3480.10" y1="1731.94" x2="3487.40" y2="1737.01" stroke-linecap="round" style="stroke:#2D6D66;stroke-width:8.64"/>
	<line x1="3487.40" y1="1737.01" x2="3494.58" y2="1742.08" stroke-linecap="round" style="stroke:#2D6D66;stroke-width:8.64"/>
	<line x1="3494.58" y1="1742.08" x2="3501.88" y2="1747.16" stroke-linecap="round" style="stroke:#2D6D66;stroke-width:8.64"/>
	<line x1="3501.88" y1="1747.16" x2="3509.18" y2="1751.98" stroke-linecap="round" style="stroke:#2D6D66;stroke-width:8.64"/>
	<line x1="3509.18" y1="1751.98" x2="3516.36" y2="1756.81" stroke-linecap="round" style="stroke:#2D6D66;stroke-width:8.64"/>
	<line x1="3516.36" y1="1756.81" x2="3523.66" y2="1761.64" stroke-linecap="round" style="stroke:#2D6D66;stroke-width:8.64"/>
	<line x1="3523.66" y1="1761.64" x2="3530.96" y2="1766.22" stroke-linecap="round" style="stroke:#2D6D66;stroke-width:8.64"/>
	<line x1="3530.96" y1="1766.22" x2="3538.14" y2="1770.79" stroke-linecap="round" style="stroke:#2D6D66;stroke-width:8.64"/>
	<line x1="3538.14" y1="1770.79" x2="3545.44" y2="1775.25" stroke-linecap="round" style="stroke:#2D6D66;stroke-width:8.64"/>
	<line x1="3545.44" y1="1775.25" x2="3552.61" y2="1779.70" stroke-linecap="round" style="stroke:#2D6D66;stroke-width:8.64"/>
	<line x1="3552.61" y1="1779.70" x2="3559.92" y2="1784.04" stroke-linecap="round" style="stroke:#2D6D66;stroke-width:8.64"/>
	<line x1="3559.92" y1="1784.04" x2="3567.22" y2="1788.24" stroke-linecap="round" style="stroke:#2D6D66;stroke-width:8.64"/>
	<line x1="3567.22" y1="1788.24" x2="3574.39" y2="1792.45" stroke-linecap="round" style="stroke:#2D6D66;stroke-width:8.64"/>
	<line x1="3574.39" y1="1792.45" x2="3581.70" y2="1796.53" stroke-linecap="round" style="stroke:#2D6D66;stroke-width:8.64"/>
	<line x1="3581.70" y1="1796.53" x2="3589.00" y2="1800.50" stroke-linecap="round" style="stroke:#2D6D66;stroke-width:8.64"/>
	<line x1="3589.00" y1="1800.50" x2="3596.18" y2="1804.46" stroke-linecap="round" style="stroke:#2D6D66;stroke-width:8.64"/>
	<line x1="3596.18" y1="1804.46" x2="3603.48" y2="1808.29" stroke-linecap="round" style="stroke:#2D6D66;stroke-width:8.64"/>
	<rect x="498.96" y="909.10" width="309.75" height="1044.61" style="fill:#0080FF;fill-opacity:0.50"/>
	<rect x="503.28" y="913.42" width="301.11" height="1035.97" style="fill:none;stroke:#D7D29E;stroke-width:8.64"/>
	<rect x="808.71" y="282.28" width="309.62" height="1671.42" style="fill:#0080FF;fill-opacity:0.50"/>
	<rect x="813.03" y="286.60" width="300.98" height="1662.78" style="fill:none;stroke:#D7D29E;stroke-width:8.64"/>
	<rect x="1118.33" y="282.28" width="309.75" height="1671.42" style="fill:#0080FF;fill-opacity:0.50"/>
	<rect x="1122.65" y="286.60" width="301.11" height="1662.78" style="fill:none;stroke:#D7D29E;stroke-width:8.64"/>
	<rect x="1428.08" y="1326.89" width="309.75" height="626.81" style="fill:#0080FF;fill-opacity:0.50"/>
	<rect x="1432.39" y="1331.21" width="301.11" height="618.17" style="fill:none;stroke:#D7D29E;stroke-width:8.64"/>
	<rect x="1737.82" y="700.20" width="309.75" height="1253.50" style="fill:#0080FF;fill-opacity:0.50"/>
	<rect x="1742.14" y="704.52" width="301.11" height="1244.86" style="fill:none;stroke:#D7D29E;stroke-width:8.64"/>
	<line x1="390.80" y1="1953.70" x2="390.80" y2="100.86" style="stroke:#000000;stroke-width:5.76"/>
	<line x1="390.80" y1="1953.70" x2="350.83" y2="1953.70" style="stroke:#000000;stroke-width:5.76"/>
	<text x="300.72" y="1953.70" style="font-family:'Helvetica';font-size:99.99px;fill:#000000" transform="rotate(-90 300.72,1953.70)" text-anchor="middle">0</text>
	<line x1="390.80" y1="1372.80" x2="350.83" y2="1372.80" style="stroke:#000000;stroke-width:5.76"/>
	<text x="300.72" y="1372.80" style="font-family:'Helvetica';font-size:99.99px;fill:#000000" transform="rotate(-90 300.72,1372.80)" text-anchor="middle">.01</text>
	<line x1="390.80" y1="791.90" x2="350.83" y2="791.90" style="stroke:#000000;stroke-width:5.76"/>
	<text x="300.72" y="791.90" style="font-family:'Helvetica';font-size:99.99px;fill:#000000" transform="rotate(-90 300.72,791.90)" text-anchor="middle">.02</text>
	<line x1="390.80" y1="211.00" x2="350.83" y2="211.00" style="stroke:#000000;stroke-width:5.76"/>
	<text x="300.72" y="211.00" style="font-family:'Helvetica';font-size:99.99px;fill:#000000" transform="rotate(-90 300.72,211.00)" text-anchor="middle">.03</text>
	<text x="190.71" y="1027.28" style="font-family:'Helvetica';font-size:99.99px;fill:#000000" transform="rotate(-90 190.71,1027.28)" text-anchor="middle">Density</text>
	<line x1="390.80" y1="1953.70" x2="3859.02" y2="1953.70" style="stroke:#000000;stroke-width:5.76"/>
	<line x1="454.16" y1="1953.70" x2="454.16" y2="1993.67" style="stroke:#000000;stroke-width:5.76"/>
	<text x="454.16" y="2083.66" style="font-family:'Helvetica';font-size:99.99px;fill:#000000" text-anchor="middle">0</text>
	<line x1="1122.41" y1="1953.70" x2="1122.41" y2="1993.67" style="stroke:#000000;stroke-width:5.76"/>
	<text x="1122.41" y="2083.66" style="font-family:'Helvetica';font-size:99.99px;fill:#000000" text-anchor="middle">20</text>
	<line x1="1790.79" y1="1953.70" x2="1790.79" y2="1993.67" style="stroke:#000000;stroke-width:5.76"/>
	<text x="1790.79" y="2083.66" style="font-family:'Helvetica';font-size:99.99px;fill:#000000" text-anchor="middle">40</text>
	<line x1="2459.04" y1="1953.70" x2="2459.04" y2="1993.67" style="stroke:#000000;stroke-width:5.76"/>
	<text x="2459.04" y="2083.66" style="font-family:'Helvetica';font-size:99.99px;fill:#000000" text-anchor="middle">60</text>
	<line x1="3127.41" y1="1953.70" x2="3127.41" y2="1993.67" style="stroke:#000000;stroke-width:5.76"/>
	<text x="3127.41" y="2083.66" style="font-family:'Helvetica';font-size:99.99px;fill:#000000" text-anchor="middle">80</text>
	<line x1="3795.66" y1="1953.70" x2="3795.66" y2="1993.67" style="stroke:#000000;stroke-width:5.76"/>
	<text x="3795.66" y="2083.66" style="font-family:'Helvetica';font-size:99.99px;fill:#000000" text-anchor="middle">100</text>
	<text x="2124.91" y="2193.67" style="font-family:'Helvetica';font-size:99.99px;fill:#000000" text-anchor="middle">age</text>
	<rect x="1237.25" y="2278.31" width="1775.32" height="466.30" style="fill:#FFFFFF"/>
	<rect x="1240.13" y="2281.19" width="1769.56" height="460.54" style="fill:none;stroke:#000000;stroke-width:5.76"/>
	<rect x="1280.44" y="2321.50" width="374.34" height="99.99" style="fill:#FF7F00;fill-opacity:0.40"/>
	<rect x="1284.76" y="2325.82" width="365.70" height="91.35" style="fill:none;stroke:#D7D29E;stroke-width:8.64"/>
	<line x1="1280.44" y1="2511.46" x2="1654.79" y2="2511.46" style="stroke:#2D6D66;stroke-width:8.64"/>
	<rect x="1280.44" y="2601.43" width="374.34" height="99.99" style="fill:#0080FF;fill-opacity:0.50"/>
	<rect x="1284.76" y="2605.75" width="365.70" height="91.35" style="fill:none;stroke:#D7D29E;stroke-width:8.64"/>
	<text x="1714.80" y="2406.52" style="font-family:'Helvetica';font-size:99.99px;fill:#000000">Sampled from Normal</text>
	<text x="1714.80" y="2546.49" style="font-family:'Helvetica';font-size:99.99px;fill:#000000">Theoritical Normal</text>
	<text x="1714.80" y="2686.46" style="font-family:'Helvetica';font-size:99.99px;fill:#000000">Sampled from t-distribution</text>
</svg>
